<?xml version="1.0" encoding="utf-8"?>
<!-- Generator: Adobe Illustrator 25.2.1, SVG Export Plug-In . SVG Version: 6.00 Build 0)  -->
<svg version="1.1" id="Capa_1" xmlns="http://www.w3.org/2000/svg" xmlns:xlink="http://www.w3.org/1999/xlink" x="0px" y="0px"
	 viewBox="0 0 1080 1080" style="enable-background:new 0 0 1080 1080;" xml:space="preserve">
<style type="text/css">
	.st0{display:none;fill:#FFFFFF;}
	.st1{display:none;fill:#F6F6F6;}
	.st2{fill:#393F82;}
	.st3{fill:#384A63;}
	.st4{fill:#AA1123;}
</style>
<g>
	<path class="st0" d="M798.8,445.22c9.23,0,18.46,0,27.69,0c0,184.73,0,369.46,0,554.25c-112.47,0-224.93,0-337.5,0
		c0-184.71,0-369.48,0-554.25c102.25,0,204.53,0,306.81,0c-0.21,1.08-0.39,2.17-0.62,3.24c-1.51,6.88,3.11,13.17,10.13,13.77
		c6.5,0.55,12.68-5.56,10.65-11.9c-0.73,1.89-1.14,3.04-1.6,4.16c-1.83,4.43-6.57,6.64-11.05,5.17c-4.37-1.43-7.1-5.91-6.11-10.26
		C797.53,447.96,798.25,446.61,798.8,445.22z M547.49,623.17c37.98-16.59,77.57-19.53,118.03-13.77
		c40.41,5.76,77.73,19.36,110.11,46.85c0-7.4,0.02-13.84,0-20.28c-0.04-14.06-0.09-13.98-12.66-20.41
		c-25.01-12.8-51.62-19.58-79.51-21.93c-34.76-2.94-68.72,0.5-101.69,12.22C569.63,610.15,558.06,615.63,547.49,623.17z
		 M541.74,660.89c-0.09,0.95-0.34,2.4-0.35,3.85c-0.05,6.62,0.23,13.26-0.12,19.87c-0.25,4.66,1.55,7.24,5.58,9.44
		c11.93,6.54,24.16,12.45,37.26,16.06c11.82,3.26,23.86,5.99,35.97,7.9c9.66,1.52,19.59,2.08,29.38,1.95
		c14.7-0.2,29.48-0.56,44.04-2.33c16.81-2.04,33.12-6.84,48.84-13.31c4.51-1.86,8.85-4.11,13.27-6.18
		C678.47,718.55,607.13,707.81,541.74,660.89z M669.89,629.31c-11.79-6.39-28.66-1.65-37.03,10.4c-8.64,12.45-6.55,29.74,4.83,39.86
		c11.72,10.42,29.08,10.41,40.61-0.03c10.22-9.24,13.31-26.08,6.55-35.61c-2.89,8.43-7.32,12.09-14.13,11.65
		c-5.9-0.38-10.73-4.51-11.91-10.18C657.35,638.4,660.45,633.9,669.89,629.31z M540.77,635.48c-1.51,6.95-0.81,12.29,5.42,16.27
		c9.02,5.75,17.38,12.59,26.55,18.06c22.91,13.66,47.86,22.2,73.8,27.93c7.86,1.73,15.86,2.83,23.8,4.22
		c-23.77-5.99-46.89-13.54-68.92-24.36C579.23,666.69,558.85,653.2,540.77,635.48z M647.51,611.7c-0.14,0.44-0.27,0.88-0.41,1.32
		c48.17,10.97,91.99,30.56,128.57,65.57c0.3-6.24,1.53-11.94-4.79-15.64c-2.98-1.74-5.46-4.34-8.27-6.4
		c-22.88-16.8-48.24-28.46-75.52-35.86C674.04,617.15,660.71,614.66,647.51,611.7z M589.09,751.07c0.07-0.35,0.14-0.71,0.22-1.06
		c2.92-0.14,5.87-0.1,8.76-0.46c4.92-0.61,6.53-2.72,6.14-7.51c-0.28-3.5-2.36-5.36-7.09-5.55c-6.09-0.25-12.21-0.21-18.31-0.08
		c-0.93,0.02-2.61,1.11-2.63,1.75c-0.21,6.23-0.19,12.48-0.05,18.71c0.01,0.62,1.22,1.21,1.87,1.81c0.46-0.62,1.23-1.2,1.32-1.87
		c0.27-1.9,0.26-3.84,0.38-6.11c1.32,0.37,2.16,0.52,2.92,0.84c4.82,2.03,9.58,4.2,14.44,6.11c1.74,0.68,3.71,0.77,5.57,1.13
		c0.13-0.49,0.27-0.98,0.4-1.47C598.38,755.23,593.73,753.15,589.09,751.07z M684.93,758.75c1.99,0,3.98,0.02,5.97-0.01
		c0.74-0.01,1.49-0.12,2.23-0.25c3.92-0.73,5.61-2.59,5.77-6.58c0.11-2.87,0.13-5.74,0.02-8.61c-0.19-4.61-1.99-6.52-6.68-6.79
		c-4.1-0.24-8.22-0.27-12.32-0.13c-6.89,0.24-8.48,2.01-8.53,8.8C671.32,756.14,669.39,758.85,684.93,758.75z M651.23,736.04
		c-0.01,0.09-0.01,0.18-0.02,0.27c-2.74,0-5.48,0.11-8.21-0.03c-2.51-0.12-3.61,0.69-3.51,3.4c0.18,5.23-0.02,10.48,0.16,15.71
		c0.04,1.1,0.99,2.17,1.53,3.26c0.58-1.15,1.74-2.37,1.63-3.45c-0.4-3.88,1.09-5.12,4.87-4.77c3.33,0.31,6.72,0.13,10.07,0
		c1.97-0.08,3.98-0.29,5.88-0.79c3.67-0.95,4.6-3.83,4.53-7.23c-0.06-3.31-1.99-5.11-5.04-5.48
		C659.17,736.45,655.19,736.32,651.23,736.04z M607.95,745.76c0,2.13,0.11,4.26-0.03,6.37c-0.23,3.53,1.65,5.86,4.77,6.07
		c5.93,0.4,11.92,0.36,17.85-0.09c3.92-0.3,5.63-3.22,5.55-7.16c-0.07-3.62,0.12-7.26-0.09-10.87c-0.07-1.23-1.03-2.41-1.59-3.61
		c-0.58,1.16-1.6,2.29-1.67,3.47c-0.22,3.74-0.17,7.5-0.07,11.24c0.09,3.17-1.54,4.69-4.45,4.81c-3.86,0.17-7.73,0.17-11.59,0.08
		c-4.24-0.1-5.22-1.17-5.27-5.45c-0.04-4,0.1-8-0.08-12c-0.03-0.76-1.22-1.46-1.88-2.19c-0.49,0.73-1.34,1.44-1.4,2.2
		C607.83,741.01,607.94,743.39,607.95,745.76z M559.22,738.34c-0.04-0.66-0.07-1.32-0.11-1.98c-2.95,0.16-5.92,0.13-8.83,0.54
		c-3.57,0.5-5.49,2.59-5.27,6.45c0.15,2.74,0,5.5,0.03,8.25c0.06,4.53,1.46,6.46,6.07,6.89c4.95,0.45,9.97,0.51,14.93,0.2
		c5.38-0.33,7-2.29,6.81-7.67c-0.06-1.55-1.09-3.07-1.67-4.6c-0.47,1.52-1.36,3.05-1.32,4.56c0.08,3.04-0.94,4.97-4.07,5.07
		c-4.61,0.14-9.23,0.1-13.84-0.04c-2.31-0.07-3.63-1.32-3.5-3.88c0.12-2.49,0.03-5,0.02-7.5c-0.02-4.9,0.48-5.4,5.56-5.75
		C555.76,738.75,557.49,738.52,559.22,738.34z M761.97,738.49c-3.27-3.16-10.51-2.13-12.5,0.78c-0.27,0.4-0.55,0.9-0.55,1.36
		c-0.07,5.48-0.14,10.96-0.05,16.44c0.01,0.54,1.06,1.07,1.63,1.6c0.51-0.6,1.35-1.15,1.47-1.83c0.25-1.46,0.26-2.99,0.12-4.47
		c-0.24-2.6,0.79-3.57,3.39-3.5c4.97,0.13,9.95,0.07,14.92,0.01c1.2-0.02,2.39-0.36,3.58-0.55c0.02-0.42,0.03-0.85,0.04-1.27
		c-1.16-0.26-2.31-0.72-3.47-0.74c-5.1-0.09-10.2-0.15-15.29-0.02c-2.46,0.06-3.19-0.87-3.22-3.26c-0.04-3.18,2.03-3.65,4.33-3.97
		C758.23,738.8,760.11,738.67,761.97,738.49z M738.59,748.43c0.02-0.49,0.05-0.97,0.07-1.46c-1.21-0.23-2.42-0.64-3.64-0.66
		c-5.11-0.08-10.23,0.06-15.34-0.13c-1.05-0.04-2.99-1.25-2.93-1.73c0.2-1.66,0.69-3.7,1.85-4.7c1.02-0.89,3.08-0.53,4.67-0.83
		c1.19-0.22,2.35-0.61,3.52-0.92c-0.06-0.55-0.12-1.09-0.18-1.64c-2.81,0.17-5.66,0.13-8.42,0.57c-3.45,0.55-5.08,2.75-4.91,6.37
		c0.15,3.24-0.14,6.51,0.1,9.74c0.14,1.9,0.93,3.75,1.43,5.62c3.15-1.12,1.62-3.8,1.62-5.71c-0.01-3.08,1.02-4.23,4.13-4.11
		c4.86,0.19,9.73,0.07,14.59,0.01C736.3,748.85,737.45,748.58,738.59,748.43z M742.01,747.14c0.01,0,0.02,0,0.02,0
		c0,3.1-0.09,6.21,0.07,9.31c0.04,0.76,0.91,1.48,1.39,2.22c0.64-0.73,1.81-1.44,1.83-2.18c0.15-5.96,0.16-11.92,0.01-17.88
		c-0.02-0.74-1.19-1.45-1.83-2.18c-0.5,0.84-1.37,1.65-1.43,2.52C741.89,741.67,742.01,744.41,742.01,747.14z"/>
</g>
<g>
	<path class="st1" d="M856.88,188.81c3.24,0,6.49,0,9.73,0c0,184.73,0,369.46,0,554.25c-112.47,0-224.94,0-337.5,0
		c0-184.71,0-369.48,0-554.25c102.25,0,204.53,0,306.81,0c-0.29,1.19-0.64,2.38-0.87,3.59c-0.89,4.58,0.55,8.41,4.19,11.22
		c3.65,2.82,7.73,3.25,11.91,1.18c3.99-1.97,6.02-5.23,6.27-9.69c-2.61-1.07-2.41,0.78-2.84,2.14c-1.61,5.02-6.76,7.48-11.62,5.63
		c-4.67-1.78-6.78-6.87-4.84-11.64c0.32-0.79,0.54-1.62,0.81-2.42c3.24,0,6.49,0,9.73,0c1.24,2.45,3.85,1.35,5.73,2.18
		C856.55,191.96,856.79,190.4,856.88,188.81z M589.22,365.62c38.14-15.6,77.63-18.66,117.85-12.48c39.87,6.13,77,19.32,108.8,46.8
		c0-7.91-0.78-14.95,0.19-21.76c1.36-9.62-2.4-15.28-11.03-18.48c-0.58-0.21-1.12-0.55-1.67-0.83
		c-25.07-12.86-51.79-19.66-79.78-22.02c-34.85-2.94-68.89,0.55-101.94,12.27C610.18,353.2,599.16,358.24,589.22,365.62z
		 M807.62,434.74c-6.28,0.89-11.78,3.96-17.67,5.88c-9.25,3.02-18.62,5.57-28.21,6.98c-21.3,3.14-42.68,3.46-64.09,0.94
		c-21.61-2.54-42.65-7.29-62.89-15.49c-11.37-4.61-22.59-9.53-32.86-16.2c-6-3.9-11.95-8.04-17.34-12.85
		c-0.84-0.75-1.58-2.24-3.07-1.39c-1.32,0.75-0.91,2.2-0.91,3.41c-0.03,8.36,0.03,16.72-0.07,25.08c-0.03,2.09,0.55,3.56,2.36,4.63
		c6.44,3.81,12.94,7.37,19.8,10.5c9.14,4.17,18.54,7.2,28.07,10.08c10.81,3.26,22.01,4.84,33.04,7.07
		c6.27,1.27,12.89,0.86,19.36,1.07c20.48,0.68,40.85-0.41,60.95-4.54c8.46-1.74,16.86-3.79,25.1-6.6
		c7.36-2.51,14.46-5.61,21.56-8.66C796.69,442.09,802.57,439.13,807.62,434.74z M724.71,385.92c-1.71,8.33-6.12,12.62-12.78,12.74
		c-6.04,0.11-11.26-3.85-12.66-9.61c-1.73-7.13,1.42-11.61,11.47-16.3c-10.49-6.48-27.99-2.63-36.34,7.99
		c-9.99,12.71-9.24,30.11,1.77,40.91c12.18,11.94,29.68,12.74,42.86,1.05C727.8,414.93,732.98,399.51,724.71,385.92z M580.5,378.11
		c-1.42,7.75-0.72,13.98,6.51,17.75c1.15,0.6,1.89,1.94,2.98,2.7c11.67,8.19,23.58,15.97,36.43,22.25
		c18.26,8.93,37.47,15.34,57.11,20.03c10.98,2.62,22.32,4.57,33.81,4.88c-25.26-5.25-49.79-12.7-73.12-23.86
		C620.83,410.68,599.42,396.65,580.5,378.11z M678.06,354.68c51.06,10.27,98.55,30.09,138.22,68.03c0-3.25-0.23-5.47,0.05-7.63
		c0.44-3.37-1.05-5.57-3.49-7.63c-13.01-11-27.26-20.17-42.55-27.55c-25.06-12.08-51.48-19.91-79.04-23.89
		C686.56,355.34,681.82,355.2,678.06,354.68z M620.86,493.58c5.91,4.74,13.05,5.81,19.33,8.79c1.01,0.48,2.71,0.66,3.19-0.92
		c0.54-1.76-1.25-1.89-2.27-2.36c-3.56-1.61-7.16-3.12-10.74-4.67c3.08-1.2,6.06-0.66,8.92-1.42c4.43-1.18,5.84-2.98,5.59-7.44
		c-0.22-3.9-2.26-6.03-7.35-6.27c-7.05-0.34-14.13-0.08-21.63-0.08c0,7.21-0.1,14.28,0.05,21.34c0.05,2.42,1.78,2.14,3.28,1.62
		C620.31,499.3,618.4,496.2,620.86,493.58z M725.11,502.56c3.11-0.07,6.25,0.29,9.28-0.74c2.63-0.89,4.83-2.26,4.9-5.39
		c0.08-3.86,0.04-7.73-0.01-11.6c-0.04-2.78-1.68-4.58-4.21-5c-6.4-1.06-12.86-1.39-19.29-0.09c-3.02,0.61-4.67,2.49-4.71,5.62
		c-0.04,3.49,0.01,6.98-0.03,10.48c-0.02,2.56,1.29,4.13,3.46,5.29C717.88,502.95,721.53,502.4,725.11,502.56z M683.34,494.4
		c6.43-0.7,12.42,0.27,18.32-0.68c5.02-0.81,6.97-2.91,6.92-7.5c-0.04-4.55-1.65-6.27-6.95-6.87c-6.56-0.74-13.16-0.27-19.74-0.33
		c-1.9-0.02-2.65,0.89-2.63,2.75c0.07,6.09,0.07,12.19,0.11,18.28c0.01,1.32,0.17,2.52,1.99,2.43c1.72-0.09,1.96-1.23,1.98-2.57
		C683.35,498.21,683.34,496.49,683.34,494.4z M651.47,479.2c-3.83,0.06-3.9,0.05-3.93,3.01c-0.05,4.36,0.05,8.73-0.01,13.1
		c-0.05,3.94,2.05,6.04,5.69,6.67c5.44,0.93,10.94,1.05,16.37,0.1c5.27-0.92,6.87-3.07,6.91-8.39c0.03-3.74,0.06-7.48,0.04-11.23
		c-0.01-1.45,0.31-3.29-1.89-3.4c-2.37-0.11-2.35,1.74-2.36,3.41c-0.02,4.12,0.03,8.23-0.01,12.35c-0.03,2.76-1.12,4.34-4.25,4.17
		c-3.35-0.18-6.73,0.05-10.09,0.01c-5.3-0.06-6.06-0.91-6.17-6.05C651.66,488.36,652.15,483.75,651.47,479.2z M599.1,502.56
		c1.49,0,2.99,0,4.48,0c8.09-0.03,10.53-2.65,9.99-10.61c-0.1-1.47-0.19-2.79-2.17-2.74c-2.04,0.05-1.96,1.5-1.97,2.9
		c-0.01,0.75-0.08,1.5,0.02,2.24c0.4,3.04-1.11,4.47-3.97,4.55c-4.23,0.11-8.46,0.11-12.69,0.06c-2.64-0.03-4.25-1.17-3.96-4.14
		c0.11-1.11,0.01-2.24,0.01-3.36c0-8.51,0-8.51,8.54-9.05c0.25-0.02,0.5-0.01,0.75-0.03c0.92-0.08,1.76-0.26,1.79-1.44
		c0.04-1.24-0.64-1.81-1.82-1.87c-2.87-0.14-5.73-0.17-8.51,0.68c-3.35,1.02-5.24,3.09-5,6.85c0.17,2.73,0.01,5.48,0.04,8.22
		c0.04,4.38,1.58,6.25,5.92,7.27C593.38,502.76,596.25,502.48,599.1,502.56z M792.47,492.48c6.04,0,11.74,0.09,17.43-0.06
		c1.62-0.04,4.56,1.26,4.56-1.52c0-3.03-3.05-1.66-4.78-1.72c-4.61-0.17-9.22-0.05-13.83-0.05c-1.64,0-3.3,0.21-3.33-2.3
		c-0.03-2.13,0.37-3.73,2.84-3.95c1.61-0.15,3.22-0.32,4.83-0.45c1.09-0.09,2.53,0.16,2.37-1.54c-0.12-1.24-1.14-1.82-2.42-1.86
		c-3.02-0.09-6.01,0.17-8.79,1.39c-1.47,0.65-2.81,1.77-2.84,3.55c-0.1,5.48-0.08,10.97-0.07,16.46c0,1.28,0.64,2.08,2.07,2.09
		c1.51,0.02,1.95-0.84,1.95-2.12C792.48,497.92,792.47,495.44,792.47,492.48z M756.99,489.14c-0.73-5.15-0.21-5.92,4.28-6.54
		c1.35-0.19,2.73-0.19,4.1-0.23c0.96-0.03,1.74-0.22,1.81-1.38c0.08-1.23-0.57-1.91-1.74-1.95c-3.38-0.11-6.72-0.01-9.82,1.65
		c-1.77,0.94-2.74,2.14-2.67,4.34c0.15,4.85,0.04,9.72,0.03,14.58c0,1.44,0.01,2.85,2.01,2.87c1.91,0.02,2.08-1.23,2.2-2.74
		c0.18-2.3-0.55-4.7,0.61-7.18c1.36,0,2.72,0,4.08,0c4.36,0,8.72,0.09,13.07-0.06c1.51-0.05,4.19,0.94,4.07-1.76
		c-0.12-2.57-2.73-1.33-4.27-1.53c-1.47-0.2-2.98-0.05-4.48-0.05C765.81,489.14,761.36,489.14,756.99,489.14z M785.84,491.32
		c0.01,0,0.01,0,0.02,0c0-3.24,0-6.48,0-9.71c0-1.38-0.3-2.49-2.04-2.46c-1.44,0.03-2,0.89-2,2.16c-0.01,6.35,0.02,12.7,0.05,19.05
		c0.01,1.34,0.71,2.1,2.06,2.13c1.48,0.03,1.9-0.93,1.9-2.2C785.84,497.3,785.84,494.31,785.84,491.32z"/>
	<path class="st2" d="M281.05,390.16c22.1-17.26,46.57-29.04,72.03-38.53c70.59-25.89,137.25-28.28,214.69-21.41
		c71.2,9.4,103.08,16.61,169.67,37.45c1.23,0.66,1.23,0.66,47.91,16.69c-0.51,23.27,0,12.3-0.26,35.17
		c-0.18,15.41-0.41,32.37-0.41,50.84C714.02,406.15,631.5,375.32,542.91,361C453.55,346.55,365.81,353.71,281.05,390.16z"/>
	<path class="st3" d="M786.35,547.73c-20.52,18.95-43.82,32.63-68.29,44.11c-67.87,31.39-133.72,39.04-210.98,38.32
		c-71.28-3.74-103.43-8.41-171.07-23.92c-1.27-0.56-7.44-0.68-54.96-12.97c0-24.37,0-10.99,0-34.35c0-15.41,0-32.23,0-51.33
		c75.1,58.42,159.3,82.63,248.2,89.91C618.93,604.84,705.28,590.76,786.35,547.73z"/>
	<path class="st4" d="M571.64,437.59c19.31,31.76,7.21,67.78-13.26,85.94c-30.8,27.33-71.7,25.46-100.15-2.45
		c-25.73-25.23-27.49-65.9-4.14-95.6c19.51-24.81,60.41-33.8,84.91-18.67c-23.49,10.98-30.85,21.43-26.8,38.09
		c3.27,13.45,15.48,22.72,29.58,22.45C557.34,467.07,567.65,457.05,571.64,437.59z"/>
	<path class="st4" d="M462.63,364.59c8.79,1.21,19.86,1.53,30.81,3.12c64.4,9.32,126.13,27.59,184.69,55.83
		c35.73,17.23,69.01,38.66,99.42,64.37c4.56,4.03,7.8,5.18,8.16,17.83c0.13,4.37-0.12,10.23-0.12,17.82
		C692.91,434.9,581.94,388.58,462.63,364.59z"/>
	<path class="st4" d="M592.06,593.26c-8.18-0.47-18.37,0.13-28.58-0.53c-59.98-3.9-118.31-16.95-174.65-40.19
		c-34.37-14.18-66.87-32.75-97.12-55.81c-10.67-8.09-10.67-5.03-10.67-17.86c0-4.37,0-10.72,0-18.77
		C374.17,540.66,480.33,579.32,592.06,593.26z"/>
	<path class="st2" d="M361.92,683.54c-5.33,5.68-1.2,12.4-3.52,18.59c-3.26,1.14-7,1.74-7.11-3.5c-0.33-15.3-0.12-30.62-0.12-46.23
		c16.25,0,31.58-0.55,46.86,0.18c11.02,0.53,15.45,5.15,15.92,13.59c0.54,9.67-2.52,13.58-12.11,16.12
		c-6.21,1.65-12.66,0.48-19.33,3.07c7.77,3.35,15.57,6.62,23.27,10.11c2.22,1.01,6.09,1.29,4.93,5.1c-1.05,3.42-4.71,3.04-6.91,1.99
		C390.2,696.11,374.73,693.8,361.92,683.54z M360.03,675.58c13.61,0,25.9,0.1,38.19-0.05c4.5-0.06,6.53-2.65,6.66-7.31
		c0.13-4.84-1.58-8.27-6.46-8.39c-12.51-0.32-25.04-0.11-37.83-0.11c-0.23,2.81-0.48,4.91-0.55,7.03
		C359.97,669.4,360.03,672.05,360.03,675.58z"/>
	<path class="st2" d="M587.76,702.99c-7.76-0.34-15.67,0.83-23-3.12c-4.69-2.53-7.55-5.92-7.5-11.46c0.07-7.57-0.04-15.13,0.06-22.7
		c0.09-6.77,3.67-10.85,10.21-12.17c13.93-2.81,27.92-2.09,41.79,0.2c5.48,0.91,9.04,4.82,9.12,10.84
		c0.12,8.37,0.21,16.75,0.03,25.12c-0.15,6.79-4.92,9.76-10.61,11.68C601.29,703.6,594.49,702.82,587.76,702.99z M587.64,695.19
		c2.96,0,5.93,0.06,8.89-0.01c11.74-0.3,12.96-1.54,13-13.05c0.02-4.04-0.23-8.11,0.11-12.13c0.64-7.5-3.53-10.27-10.07-10.54
		c-6.46-0.26-12.93-0.22-19.39-0.1c-13.27,0.25-14,1.06-14.03,14.27C566.09,695.31,566.09,695.31,587.64,695.19z"/>
	<path class="st2" d="M497.27,685.31c0,4.53,0.03,8.25-0.01,11.97c-0.03,2.9-0.56,5.38-4.28,5.56c-3.94,0.2-4.3-2.4-4.32-5.27
		c-0.09-13.2-0.09-26.4-0.23-39.6c-0.04-4.02,1.6-5.99,5.71-5.95c14.26,0.13,28.55-0.89,42.76,0.71
		c11.49,1.29,14.97,5.02,15.07,14.88c0.09,9.94-4.12,14.49-15,16.24C524.17,685.9,511.21,683.8,497.27,685.31z M497.26,659.46
		c0,5.11,0.05,9.11-0.02,13.11c-0.05,2.9,0.98,4.65,4.16,4.61c11.33-0.13,22.66-0.02,33.97-0.43c5.68-0.2,7.42-3.98,7.49-9.45
		c0.08-5.93-3.28-7.69-8.05-7.77C522.72,659.33,510.61,659.46,497.26,659.46z"/>
	<path class="st2" d="M428.24,652.38c1.48,9.86,0.4,19.84,0.61,29.77c0.24,11.14,1.89,12.97,13.37,13.11
		c7.29,0.08,14.6-0.41,21.86-0.01c6.79,0.37,9.16-3.04,9.21-9.03c0.08-8.92-0.01-17.83,0.03-26.75c0.01-3.6-0.03-7.62,5.11-7.38
		c4.77,0.23,4.08,4.22,4.1,7.36c0.05,8.11-0.03,16.21-0.09,24.32c-0.08,11.51-3.55,16.18-14.96,18.17
		c-11.76,2.05-23.68,1.8-35.46-0.22c-7.88-1.35-12.44-5.9-12.33-14.44c0.13-9.46-0.1-18.91,0.02-28.37
		C419.79,652.5,419.94,652.5,428.24,652.38z"/>
	<path class="st2" d="M314.79,702.98c-6.19-0.17-12.41,0.44-18.53-1c-9.38-2.2-12.73-6.25-12.82-15.75
		c-0.05-5.93,0.3-11.89-0.08-17.8c-0.52-8.16,3.56-12.63,10.83-14.85c6.02-1.84,12.23-1.78,18.44-1.48
		c2.56,0.12,4.02,1.35,3.94,4.04c-0.07,2.54-1.89,2.95-3.88,3.12c-0.54,0.04-1.08,0.03-1.61,0.06c-18.5,1.16-18.5,1.16-18.51,19.6
		c0,2.43,0.22,4.88-0.02,7.28c-0.64,6.43,2.85,8.9,8.57,8.97c9.16,0.1,18.33,0.1,27.49-0.13c6.19-0.16,9.46-3.26,8.6-9.85
		c-0.21-1.59-0.06-3.23-0.04-4.85c0.04-3.03-0.14-6.17,4.28-6.28c4.28-0.11,4.47,2.74,4.69,5.93c1.18,17.25-4.12,22.92-21.64,22.98
		C321.26,702.99,318.02,702.98,314.79,702.98z"/>
	<path class="st2" d="M733.68,681.14c0,6.42,0.02,11.78-0.01,17.14c-0.01,2.79-0.96,4.65-4.23,4.6c-3.11-0.04-4.48-1.75-4.49-4.54
		c-0.04-11.88-0.07-23.77,0.14-35.65c0.07-3.87,2.97-6.3,6.16-7.7c6.02-2.64,12.49-3.21,19.04-3.02c2.78,0.08,4.99,1.35,5.24,4.03
		c0.35,3.68-2.78,3.14-5.14,3.34c-3.49,0.3-6.97,0.66-10.46,0.98c-5.36,0.49-6.22,3.96-6.16,8.56c0.07,5.44,3.67,4.99,7.22,4.98
		c9.99-0.02,19.99-0.26,29.97,0.1c3.74,0.14,10.35-2.83,10.35,3.74c0,6.03-6.36,3.21-9.87,3.3
		C759.11,681.34,746.76,681.14,733.68,681.14z"/>
	<path class="st2" d="M656.82,673.92c9.48,0,19.12,0,28.76,0c3.24,0,6.52-0.32,9.7,0.11c3.33,0.44,8.99-2.25,9.24,3.32
		c0.27,5.84-5.54,3.7-8.81,3.81c-9.43,0.33-18.88,0.13-28.32,0.14c-2.95,0-5.89,0-8.85,0c-2.52,5.39-0.94,10.57-1.32,15.56
		c-0.25,3.29-0.62,6-4.77,5.95c-4.34-0.06-4.36-3.11-4.35-6.22c0.03-10.53,0.27-21.06-0.07-31.58c-0.15-4.78,1.96-7.36,5.79-9.41
		c6.72-3.59,13.96-3.8,21.28-3.57c2.54,0.08,3.94,1.55,3.77,4.22c-0.15,2.51-1.85,2.93-3.93,3c-2.96,0.09-5.95,0.1-8.88,0.51
		C656.36,661.11,655.24,662.76,656.82,673.92z"/>
	<path class="st2" d="M719.31,678.63c0,6.48,0.01,12.95-0.01,19.43c-0.01,2.74-0.92,4.84-4.12,4.76c-2.92-0.07-4.44-1.7-4.45-4.61
		c-0.06-13.76-0.12-27.51-0.11-41.27c0-2.75,1.21-4.61,4.33-4.67c3.76-0.07,4.41,2.32,4.41,5.32c0,7.01,0,14.03,0,21.04
		C719.34,678.63,719.33,678.63,719.31,678.63z"/>
</g>
</svg>
